<svg overflow="visible" style="display: block;" viewBox="0 0 106.926 32.0002" fill="none" xmlns="http://www.w3.org/2000/svg">
<g id="Group">
<path id="Vector" d="M4.43424 11.2084C4.43424 12.2553 5.14254 13.4253 6.65113 13.4253C7.48269 13.4253 8.16018 13.0252 8.59114 12.5326C9.39189 11.547 9.45305 10.3461 9.45305 8.6834C6.52787 8.43687 4.43424 9.36089 4.43424 11.2084ZM10.0227 16.012C9.86907 15.0572 9.88448 14.3493 9.88448 13.8871C8.16018 16.3813 6.09691 16.3813 5.23452 16.3813C2.98682 16.3813 1.97083 15.7347 1.35497 15.1496C0.430958 14.2261 0 12.9636 0 11.7319C0 10.5001 0.430957 8.22163 3.29498 6.89747C5.20418 6.03509 7.94447 6.03509 9.45305 6.03509C9.45305 5.01909 9.42224 4.5265 9.23781 3.97228C8.8372 2.83302 7.63631 2.67894 7.20535 2.67894C6.55868 2.67894 5.88119 2.95629 5.48105 3.54132C5.14254 4.06473 5.14254 4.55732 5.14254 4.92664H0.677484C0.7083 4.09554 0.80075 2.43241 2.4326 1.26234C3.8492 0.246341 5.66595 0 7.14372 0C8.43706 0 11.147 0.215571 12.6864 2.00145C13.7332 3.26398 13.764 5.11154 13.764 5.81984L13.7948 12.0704C13.7948 13.3945 13.8257 14.7187 14.0951 16.012H10.0227Z" fill="var(--fill-0, white)"/>
<path id="Vector_2" d="M21.3163 0.392488H16.7593V16.0042H21.3163V0.392488Z" fill="var(--fill-0, white)"/>
<path id="Vector_3" d="M28.6072 3.37938L28.5148 0.392374H24.2346C24.3271 1.28529 24.4503 3.53299 24.4503 4.27211V16.0042H29.0074V8.33656C29.0074 6.39702 29.2847 4.02605 33.9034 4.45701V0.361557C30.2083 0.176801 29.1923 2.05523 28.6072 3.37938Z" fill="var(--fill-0, white)"/>
<path id="Vector_4" d="M49.5677 15.8662C48.7674 15.8662 46.7041 15.9274 45.1647 17.9599V11.1392H40.6072V31.6314H45.0106C45.1031 30.6771 45.1339 30.0071 45.1647 29.5145C46.5809 31.9471 49.0443 31.9396 49.845 31.9396C52.9551 31.9396 56.3421 29.9071 56.3421 24.0876C56.3421 18.853 53.3552 15.8662 49.5677 15.8662ZM48.5517 28.8603C46.4889 28.8603 44.9798 27.1977 44.9798 23.7257C44.9798 22.7634 44.9798 19.0146 48.3364 19.0146C51.6926 19.0146 51.6926 23.0328 51.6926 24.2337C51.6926 25.0191 51.6926 28.8524 48.5442 28.8524" fill="var(--fill-0, white)"/>
<path id="Vector_5" d="M71.5929 21.4383C71.5929 20.7304 71.5621 18.8829 70.5153 17.6203C68.9754 15.8344 66.266 15.6187 64.9726 15.6187C63.4944 15.6187 61.6776 15.8652 60.2615 16.8812C58.6292 18.0513 58.5372 19.714 58.5064 20.5455H62.971C62.971 20.1757 62.971 19.6831 63.31 19.1597C63.7101 18.5747 64.3876 18.2978 65.0342 18.2978C65.4652 18.2978 66.6661 18.4514 67.0662 19.5907C67.2511 20.1454 67.282 20.638 67.282 21.654C65.7729 21.654 63.0326 21.654 61.1234 22.5163C58.2599 23.84 57.8289 26.119 57.8289 27.3507C57.8289 28.5824 58.2599 29.8445 59.1834 30.7685C59.7993 31.3535 60.8157 32.0002 63.0634 32.0002C63.9258 32.0002 65.9886 32.0002 67.7129 29.506C67.7129 29.9678 67.6821 30.6761 67.8362 31.6304H71.924C71.6466 30.3376 71.6237 29.0134 71.6237 27.6892L71.5929 21.4383ZM66.4196 28.159C65.9886 28.6515 65.3111 29.0517 64.48 29.0517C62.971 29.0517 62.2627 27.8816 62.2627 26.8348C62.2627 24.9872 64.3568 24.0637 67.282 24.3097C67.282 25.9724 67.2203 27.1733 66.4196 28.159Z" fill="var(--fill-0, white)"/>
<path id="Vector_6" d="M88.7818 18.5834C88.3817 17.5057 87.0883 15.6582 84.0399 15.6582C80.6529 15.6582 79.4133 17.6593 78.9823 18.3676L78.859 16.0275H74.4864C74.5789 17.1051 74.5789 18.7986 74.5789 18.8528V31.6391H79.1672V22.6632C79.1672 21.4623 79.4441 20.6924 79.7214 20.2922C80.214 19.5531 81.1067 19.0913 82.0924 19.0913C83.2625 19.0913 83.9708 19.738 84.3093 20.4155C84.5558 20.9081 84.5558 21.4623 84.5558 22.109V31.6465H89.2053V23.2403C89.2053 20.3459 89.1128 19.5456 88.7743 18.5908" fill="var(--fill-0, white)"/>
<path id="Vector_7" d="M39.3449 0.384265L22.9793 31.6153H27.7212L44.0869 0.384265H39.3449Z" fill="var(--fill-0, white)"/>
<path id="Vector_8" d="M106.564 16.0193H101.422L96.7339 22.4935V11.0776H92.2077V31.6389H96.7339V23.163L101.537 31.6389H106.926L101.26 22.7708L106.564 16.0193Z" fill="var(--fill-0, white)"/>
</g>
</svg>
