<svg overflow="visible" style="display: block;" viewBox="0 0 66.8925 52.2128" fill="none" xmlns="http://www.w3.org/2000/svg">
<g id="logo_1_">
<path id="text" d="M15.1285 40.1212C15.1285 44.3826 18.6248 45.1157 21.1785 45.6497C22.557 45.9393 23.6465 46.1677 23.6465 46.8221C23.6465 47.5072 22.3223 47.7508 21.0817 47.7508C19.1992 47.7508 17.2004 47.3568 15.5977 46.6682L15.2907 46.5353V51.376L15.4599 51.417C17.8123 51.9747 19.8265 52.2128 22.1963 52.2128C24.6351 52.2128 30.3085 51.6461 30.3085 46.3919C30.3085 42.1415 26.7899 41.4453 24.2209 40.9364C22.8626 40.667 21.7897 40.4553 21.7897 39.835C21.7897 39.0588 23.0276 38.955 24.239 38.955C25.8389 38.955 27.4742 39.2391 28.969 39.7793L29.2649 39.8851V35.1078L29.0901 35.0709C27.3259 34.6984 25.4058 34.4917 23.682 34.4917C18.0066 34.4917 15.1285 36.386 15.1285 40.1212ZM30.8195 43.3515C30.8195 49.0653 34.0875 52.2121 40.0233 52.2121C46.003 52.2121 49.296 49.0653 49.296 43.3515C49.296 37.7207 45.9166 34.491 40.0233 34.491C34.1738 34.4917 30.8195 37.7213 30.8195 43.3515ZM37.7592 43.3515C37.7592 40.4338 38.5209 38.9543 40.0226 38.9543C42.0548 38.9543 42.3277 41.4655 42.3556 43.3557C42.3284 45.4784 42.123 47.7508 40.0226 47.7508C38.5 47.7508 37.7592 46.3118 37.7592 43.3515ZM50.6091 34.7799H50.389V51.9253H60.0099C63.5849 51.9253 66.8925 51.3363 66.8925 47.0616C66.8925 45.5209 65.732 43.7846 63.7617 43.2012C65.6811 42.4938 66.5911 41.185 66.5911 39.1165C66.5911 36.3192 64.5338 34.7799 60.7994 34.7799H50.6091ZM58.1301 45.0572C59.6019 45.0572 60.2313 45.4993 60.2313 46.5353C60.2313 47.9291 58.5875 48.0377 58.0835 48.0377C58.0835 48.0377 57.0092 48.0377 56.6792 48.0377C56.6792 47.6784 56.6792 45.4158 56.6792 45.0572C57.012 45.0572 58.1301 45.0572 58.1301 45.0572ZM58.1531 38.3793C59.4237 38.3793 60.0684 38.8527 60.0684 39.7863C60.0684 40.9288 58.9516 41.1689 58.0139 41.1689C58.0139 41.1689 57.0044 41.1689 56.6792 41.1689C56.6792 40.8139 56.6792 38.7336 56.6792 38.3786C57.0134 38.3793 58.1531 38.3793 58.1531 38.3793ZM5.0781 31.7243L3.13987 33.5044L3.28399 33.627C3.33411 33.6708 4.41949 34.5773 6.18854 35.0605C2.30095 36.212 0 39.1778 0 43.1127C0 48.6935 3.78247 52.1606 9.87146 52.1606C11.8758 52.1606 13.8252 51.6426 14.3752 51.4832L14.497 51.4477V46.6543L14.2722 46.7344C13.058 47.1695 12.0067 47.3707 10.9624 47.3707C8.29177 47.3707 6.69747 45.8154 6.69747 43.2074C6.69747 40.7282 8.41222 39.1882 11.172 39.1882C12.2163 39.1882 13.2585 39.4834 14.2297 39.803L14.4504 39.8754V35.1001L13.9825 35.0117C13.1471 34.8551 12.4446 34.7263 11.6997 34.6434C13.0447 34.0468 13.9359 33.2336 14.3752 32.7616L14.5026 32.6244L13.7584 32.0598L13.6546 32.1726C13.6407 32.1886 12.2504 33.6792 9.67165 33.6534C6.93487 33.6263 5.33848 31.7605 5.32316 31.7417L5.20968 31.6059L5.0781 31.7243Z" fill="var(--fill-0, white)"/>
<path id="plavec" d="M22.4564 11.2639C22.4564 5.04329 27.4997 0 33.7209 0C39.9422 0 44.9855 5.04329 44.9855 11.2639C44.9855 17.4844 39.9422 22.5277 33.7209 22.5277C27.4997 22.5277 22.4564 17.4844 22.4564 11.2639ZM42.0287 20.3765C39.8823 22.7032 36.0978 25.0306 31.2424 25.0306C27.4753 25.0306 24.2317 23.5658 22.1681 21.9387C9.87041 23.2295 0.725098 25.0584 0.725098 25.0584V30.0384L65.9008 30.0314L65.9071 19.7638C65.9071 19.7638 54.7859 19.6949 42.0287 20.3765Z" fill="var(--fill-0, white)"/>
</g>
</svg>
