<svg overflow="visible" style="display: block;" viewBox="0 0 109.22 14" fill="none" xmlns="http://www.w3.org/2000/svg">
<g id="eliterro_logo 1" clip-path="url(#clip0_0_32)">
<path id="Vector" d="M12.3085 13.8127H3.44143C3.10136 13.8127 2.7294 13.7528 2.32557 13.633C1.92173 13.5132 1.54881 13.3161 1.20487 13.0427C0.860935 12.7683 0.574964 12.4128 0.345028 11.9751C0.115092 11.5375 0.000124454 11.0003 0.000124454 10.3636V1.49662C0.000124454 1.32658 0.0320063 1.16621 0.0948039 1.01453C0.157602 0.862846 0.244552 0.730488 0.354689 0.617452C0.464827 0.504416 0.596219 0.415534 0.746933 0.352736C0.898613 0.289939 1.06189 0.258057 1.23869 0.258057H12.3075V2.71586H2.45793V10.3636C2.45793 10.6844 2.54294 10.9307 2.71298 11.1008C2.88302 11.2708 3.13228 11.3558 3.45979 11.3558H12.3075V13.8136H12.3085V13.8127ZM11.2032 8.27393H3.4424V5.79777H11.2032V8.27393Z" fill="var(--fill-0, white)"/>
<path id="Vector_2" d="M27.1305 13.8128H15.9197C15.7429 13.8128 15.5796 13.7819 15.428 13.7181C15.2763 13.6553 15.1459 13.5684 15.0357 13.4582C14.9256 13.3481 14.8386 13.2167 14.7758 13.066C14.713 12.9143 14.6812 12.751 14.6812 12.5742V0.257202H17.139V11.355H27.1305V13.8128Z" fill="var(--fill-0, white)"/>
<path id="Vector_3" d="M31.4124 13.8128H28.9546V0.257202H31.4124V13.8128Z" fill="var(--fill-0, white)"/>
<path id="Vector_4" d="M46.5369 2.715H41.1208V13.8128H38.663V2.715H33.2373V0.257202H46.5369V2.715Z" fill="var(--fill-0, white)"/>
<path id="Vector_5" d="M60.5931 13.8127H51.7261C51.386 13.8127 51.0141 13.7528 50.6102 13.633C50.2074 13.5132 49.8335 13.3161 49.4905 13.0427C49.1466 12.7683 48.8606 12.4128 48.6307 11.9751C48.4007 11.5375 48.2858 11.0003 48.2858 10.3636V1.49662C48.2858 1.32658 48.3177 1.16621 48.3804 1.01453C48.4432 0.862846 48.5302 0.730488 48.6403 0.617452C48.7505 0.504416 48.8819 0.415534 49.0326 0.352736C49.1843 0.289939 49.3475 0.258057 49.5243 0.258057H60.5931V2.71586H50.7436V10.3636C50.7436 10.6844 50.8286 10.9307 50.9986 11.1008C51.1687 11.2708 51.4179 11.3558 51.7454 11.3558H60.5931V13.8136V13.8127ZM59.4879 8.27393H51.7271V5.79777H59.4879V8.27393Z" fill="var(--fill-0, white)"/>
<path id="Vector_6" d="M76.5118 4.81278C76.5118 5.37409 76.4422 5.87454 76.3041 6.31606C76.1649 6.75757 75.9775 7.14692 75.7418 7.48312C75.506 7.8203 75.2326 8.10917 74.9235 8.3478C74.6143 8.5874 74.2916 8.78448 73.9545 8.9381C73.6173 9.09268 73.2772 9.20475 72.9333 9.27334C72.5893 9.3429 72.2667 9.37768 71.9643 9.37768L77.0972 13.8112H73.2965L68.1732 9.37768H66.4052V6.91988H71.9633C72.2725 6.89476 72.5546 6.83003 72.8086 6.72569C73.0637 6.62232 73.2849 6.48126 73.4704 6.30543C73.6559 6.12863 73.7989 5.91608 73.9004 5.66683C74.0018 5.41853 74.052 5.13256 74.052 4.81181V3.26119C74.052 3.12304 74.0347 3.01677 73.9999 2.94431C73.9651 2.87185 73.9216 2.81871 73.8675 2.78393C73.8144 2.74915 73.7574 2.72886 73.6975 2.7221C73.6376 2.7163 73.5825 2.71244 73.5313 2.71244H65.4208V13.8102H62.963V1.4932C62.963 1.32316 62.9939 1.16279 63.0576 1.01111C63.1204 0.859428 63.2074 0.72707 63.3175 0.614034C63.4277 0.500998 63.559 0.412116 63.7098 0.349318C63.8614 0.286521 64.0247 0.254639 64.2015 0.254639H73.5313C74.0801 0.254639 74.5428 0.354149 74.9206 0.552203C75.2983 0.750257 75.6056 0.999515 75.8423 1.29901C76.078 1.59851 76.248 1.92119 76.3524 2.26803C76.4567 2.61486 76.5079 2.93948 76.5079 3.24187V4.81085L76.5118 4.81278Z" fill="var(--fill-0, white)"/>
<path id="Vector_7" d="M92.5251 4.81278C92.5251 5.37409 92.4555 5.87454 92.3173 6.31606C92.1782 6.75757 91.9918 7.14692 91.7551 7.48312C91.5193 7.8203 91.2459 8.10917 90.9377 8.3478C90.6286 8.5874 90.3059 8.78448 89.9687 8.9381C89.6315 9.09268 89.2915 9.20475 88.9475 9.27334C88.6036 9.3429 88.2809 9.37768 87.9785 9.37768L93.1115 13.8112H89.3117L84.1884 9.37768H82.4204V6.91988H87.9785C88.2867 6.89476 88.5688 6.83003 88.8239 6.72569C89.0789 6.62232 89.2992 6.48126 89.4856 6.30543C89.6711 6.12863 89.8151 5.91608 89.9156 5.66683C90.016 5.41853 90.0673 5.13256 90.0673 4.81181V3.26119C90.0673 3.12304 90.0499 3.01677 90.0151 2.94431C89.9803 2.87185 89.9368 2.81871 89.8827 2.78393C89.8296 2.74915 89.7726 2.72886 89.7127 2.7221C89.6528 2.7163 89.5977 2.71244 89.5475 2.71244H81.4369V13.8102H78.9791V1.4932C78.9791 1.32316 79.01 1.16279 79.0738 1.01111C79.1376 0.859428 79.2236 0.72707 79.3337 0.614034C79.4438 0.500998 79.5752 0.412116 79.7259 0.349318C79.8776 0.286521 80.0409 0.254639 80.2177 0.254639H89.5475C90.0962 0.254639 90.559 0.354149 90.9368 0.552203C91.3145 0.750257 91.6217 0.999515 91.8584 1.29901C92.0942 1.59851 92.2652 1.92119 92.3685 2.26803C92.4719 2.61486 92.5241 2.93948 92.5241 3.24187V4.81278H92.5251Z" fill="var(--fill-0, white)"/>
<path id="Vector_8" d="M109.218 8.26223V5.67111C109.218 4.84701 109.077 4.08764 108.793 3.39397C108.509 2.7003 108.116 2.10227 107.613 1.59796C107.107 1.09171 106.51 0.701401 105.822 0.421227C105.131 0.141053 104.379 0 103.567 0H100.239C99.4249 0 98.6733 0.141053 97.9806 0.421227C97.2869 0.701401 96.6889 1.09268 96.1827 1.59796C95.6793 2.1013 95.2842 2.7003 94.9972 3.39397C94.7093 4.08764 94.5663 4.84701 94.5663 5.67111V8.26223C94.5663 9.08053 94.7093 9.83797 94.9972 10.5355C95.2832 11.2311 95.6783 11.8311 96.1827 12.3305C96.6889 12.832 97.2869 13.2232 97.9806 13.5073C98.6743 13.7913 99.4259 13.9324 100.239 13.9324H103.375C102.922 13.2754 102.656 12.4774 102.656 11.6185C102.656 11.5702 102.656 11.5219 102.66 11.4755H100.239C99.7602 11.4755 99.3245 11.3973 98.9293 11.2437C98.5361 11.0881 98.198 10.8707 97.9139 10.5906C97.6299 10.3104 97.4106 9.97226 97.257 9.57905C97.1014 9.18584 97.0251 8.74432 97.0251 8.26127V5.67014C97.0251 5.18612 97.1014 4.74557 97.257 4.35236C97.4106 3.95915 97.6299 3.62101 97.9139 3.34083C98.198 3.06066 98.5371 2.84328 98.9293 2.68774C99.3245 2.53412 99.7592 2.4578 100.239 2.4578H103.548C104.026 2.4578 104.463 2.53412 104.856 2.68774C105.252 2.84328 105.59 3.06066 105.874 3.34083C106.156 3.62101 106.375 3.95915 106.531 4.35236C106.684 4.74557 106.761 5.18708 106.761 5.67014V7.53185C107.685 7.53571 108.536 7.84777 109.218 8.37044C109.219 8.33372 109.219 8.29798 109.219 8.26127H109.218V8.26223Z" fill="var(--fill-0, white)"/>
<path id="Vector_9" d="M109.198 11.6197C109.198 11.1666 109.072 10.7435 108.851 10.3821C108.434 9.69522 107.679 9.23535 106.816 9.23535C106.755 9.23535 106.697 9.23728 106.638 9.24308C105.485 9.32617 104.56 10.2324 104.444 11.3753C104.436 11.4555 104.431 11.5366 104.431 11.6188C104.431 12.4574 104.867 13.1945 105.524 13.6177C105.895 13.8592 106.339 14.0002 106.816 14.0002C108.132 14.0002 109.197 12.9317 109.197 11.6188L109.198 11.6197Z" fill="var(--fill-0, white)"/>
</g>
<defs>
<clipPath id="clip0_0_32">
<rect width="109.22" height="14" fill="white"/>
</clipPath>
</defs>
</svg>
