<svg overflow="visible" style="display: block;" viewBox="0 0 94.0203 15.8554" fill="none" xmlns="http://www.w3.org/2000/svg">
<g id="Group">
<path id="Vector" d="M71.8692 6.85011V9.81033H76.069C76.0643 9.82123 76.0596 9.82901 76.0549 9.83991C76.0363 9.88196 76.0191 9.92089 75.9989 9.96138C75.2343 11.5123 73.6475 12.5759 71.8116 12.5759C71.5079 12.5759 71.2121 12.5463 70.924 12.4903C69.4275 12.2006 68.1864 11.1947 67.5667 9.83836C67.2942 9.24196 67.1416 8.57703 67.1416 7.87785C67.1416 7.52437 67.1805 7.18023 67.2537 6.84855C67.7193 4.74789 69.5832 3.1798 71.8116 3.1798C73.2707 3.1798 74.574 3.8525 75.4289 4.90672L78.2475 3.43206C77.6495 2.56159 76.8849 1.81725 75.9973 1.24731C74.7718 0.457817 73.3112 0 71.7477 0C67.7535 0 64.4538 2.98048 63.9306 6.84855C63.8808 7.20047 63.8574 7.56174 63.8574 7.92768C63.8574 8.58638 63.9369 9.22639 64.0879 9.83836C64.9381 13.2938 68.0447 15.8554 71.7477 15.8554C73.3127 15.8554 74.7703 15.3991 75.9973 14.6081C77.2836 13.7781 78.3175 12.5837 78.9482 11.1713C79.0043 11.0467 79.0572 10.9222 79.1055 10.7945C79.2238 10.4846 79.3251 10.1654 79.406 9.83836C79.4091 9.82746 79.4107 9.81968 79.4138 9.80878C79.5602 9.20614 79.6365 8.57548 79.6365 7.92768C79.6365 7.56174 79.6116 7.20047 79.5633 6.84855H71.8676L71.8692 6.85011Z" fill="var(--fill-0, white)"/>
<path id="Vector_2" d="M0 15.5159H10.7805V12.5027H3.25609V9.07066H10.0984V6.1011H3.25609V3.12997H10.7805V0.11679H0V15.5159Z" fill="var(--fill-0, white)"/>
<path id="Vector_3" d="M34.5666 15.5159H45.3471V12.5027H37.8227V9.07066H44.665V6.1011H37.8227V3.12997H45.3471V0.11679H34.5666V15.5159Z" fill="var(--fill-0, white)"/>
<path id="Vector_4" d="M22.7164 10.6777L19.3497 0.11679H14.6189V15.5174H17.8081V5.59501L20.9334 15.5174H24.4324L27.5779 5.59501V15.5174H30.7686V0.11679H26.083L22.7164 10.6777Z" fill="var(--fill-0, white)"/>
<path id="Vector_5" d="M94.0203 3.12997V0.11679H83.2383V15.5159H94.0203V12.5027H86.4959V9.07066H93.3383V6.1011H86.4959V3.12997H94.0203Z" fill="var(--fill-0, white)"/>
<path id="Vector_6" d="M49.1871 15.5174V15.5159H49.1856L49.1871 15.5174Z" fill="var(--fill-0, white)"/>
<path id="Vector_7" d="M61.0451 5.02195C61.0451 2.55847 59.0644 0.11524 55.6105 0.11524H49.1871V15.5159H52.4198V10.0813H54.7961L58.0304 14.063V15.5159H61.4189V13.4697L58.2064 9.5534C60.033 8.71874 61.0451 6.97935 61.0451 5.02195ZM55.5451 7.18023H52.4198V3.02252H55.5451C56.8656 3.02252 57.7237 3.92413 57.7237 5.09047C57.7237 6.25681 56.8656 7.18023 55.5451 7.18023Z" fill="var(--fill-0, white)"/>
</g>
</svg>
