<svg overflow="visible" style="display: block;" viewBox="0 0 103.704 28" fill="none" xmlns="http://www.w3.org/2000/svg">
<g id="Forbes_logo 1" clip-path="url(#clip0_0_132)">
<path id="Vector" d="M58.7483 9.43704C58.7483 6.42963 58.8002 3.62963 58.9558 1.03704L51.0224 2.54074V3.26667L51.8002 3.37037C52.3706 3.42222 52.7335 3.62963 52.9409 3.94074C53.1483 4.3037 53.3039 4.82222 53.4076 5.6C53.5113 7.1037 53.615 10.5259 53.5632 15.9185C53.5632 21.2593 53.5113 24.6296 53.4076 25.9259C56.2595 26.5481 58.4891 26.8074 60.1483 26.8074C63.2595 26.8074 65.6965 25.9259 67.4595 24.1111C69.2224 22.3481 70.1558 19.8593 70.1558 16.8C70.1558 14.363 69.4817 12.3407 68.1335 10.7333C66.7854 9.12593 65.0743 8.34815 63.052 8.34815C61.7039 8.34815 60.3039 8.71111 58.7483 9.43704ZM58.9039 25.4074C58.8002 23.7481 58.6965 18.7704 58.6965 10.6296C59.1632 10.4741 59.7854 10.3704 60.5632 10.3704C61.8076 10.3704 62.7928 10.9926 63.5187 12.2889C64.2446 13.5852 64.6076 15.1407 64.6076 17.1111C64.6076 19.5481 64.1928 21.5185 63.3632 23.1778C62.5335 24.7852 61.4965 25.6148 60.2002 25.6148C59.7854 25.5111 59.3706 25.4593 58.9039 25.4074ZM21.2595 1.55556H0.518717V2.59259L1.60761 2.6963C2.43724 2.85185 3.00761 3.16296 3.37057 3.62963C3.73353 4.14815 3.94094 4.97778 3.99279 6.11852C4.40761 11.7185 4.40761 16.9556 3.99279 21.7778C3.88909 22.9185 3.68168 23.7481 3.37057 24.2667C3.00761 24.7852 2.43724 25.0963 1.60761 25.2L0.518717 25.3556V26.3926H13.8965V25.3556L12.4965 25.2519C12.1549 25.2233 11.8226 25.1258 11.5196 24.9654C11.2166 24.805 10.9492 24.585 10.7335 24.3185C10.3706 23.8 10.1632 22.9704 10.1113 21.8296C9.95575 19.7556 9.85205 17.3704 9.85205 14.7259L12.6521 14.7778C14.1558 14.8296 15.1928 15.9704 15.7113 18.2519H16.7483V9.8H15.7113C15.1928 12.0296 14.2076 13.1704 12.6521 13.2222L9.85205 13.2741C9.85205 8.60741 9.95575 5.28889 10.1113 3.26667H14.2076C17.1113 3.26667 19.0817 5.13333 20.2224 8.86667L21.4669 8.5037L21.2595 1.55556ZM18.8224 17.5259C18.8224 20.2222 19.6002 22.4519 21.1039 24.2148C22.6076 25.9778 24.8372 26.8074 27.6372 26.8074C30.4372 26.8074 32.7187 25.9259 34.378 24.1111C36.0372 22.3481 36.815 20.1185 36.815 17.4222C36.815 14.7259 36.0372 12.4963 34.5335 10.7333C33.0298 8.97037 30.8002 8.14074 28.0002 8.14074C25.2002 8.14074 22.9187 9.02222 21.2595 10.837C19.6002 12.6 18.8224 14.8296 18.8224 17.5259ZM30.3854 11.6148C31.0076 13.1185 31.2669 15.0889 31.2669 17.4741C31.2669 22.9704 30.1261 25.6667 27.8965 25.6667C26.7558 25.6667 25.8743 24.8889 25.2521 23.3333C24.6298 21.7778 24.3706 19.8074 24.3706 17.4741C24.3706 12.0296 25.5113 9.33333 27.7409 9.33333C28.8817 9.28148 29.7632 10.0593 30.3854 11.6148ZM74.2002 24.2148C75.9113 25.9259 78.0891 26.8074 80.6817 26.8074C82.2891 26.8074 83.6891 26.4963 84.9335 25.8222C86.178 25.2 87.1632 24.4222 87.8372 23.4889L87.3187 22.8667C86.178 23.7481 84.8817 24.163 83.378 24.163C81.3039 24.163 79.6965 23.4889 78.6076 22.0889C77.4669 20.6889 76.9483 18.9259 77.0521 16.6444H88.1483C88.1483 14.1556 87.5261 12.1333 86.2298 10.5259C84.9335 8.97037 83.1187 8.19259 80.7854 8.19259C77.8817 8.19259 75.6521 9.12593 74.0446 10.9407C72.4372 12.7556 71.6595 14.9852 71.6595 17.6296C71.6595 20.3259 72.4891 22.5037 74.2002 24.2148ZM78.0372 11.2C78.6076 9.95556 79.3335 9.33333 80.3187 9.33333C81.8743 9.33333 82.652 11.3037 82.652 15.2963L77.1558 15.4C77.2076 13.8444 77.4669 12.4444 78.0372 11.2ZM102.096 9.12593C100.696 8.5037 98.9335 8.14074 96.8076 8.14074C94.6298 8.14074 92.9187 8.71111 91.6224 9.8C90.3261 10.8889 89.652 12.237 89.652 13.8444C89.652 15.2444 90.0669 16.3333 90.8446 17.1111C91.6224 17.8889 92.8669 18.563 94.4743 19.1333C95.9261 19.6519 96.9632 20.1704 97.4817 20.637C98.0002 21.1556 98.3113 21.7259 98.3113 22.5037C98.3113 23.2296 98.052 23.9037 97.4817 24.4222C96.9632 24.9926 96.2372 25.2519 95.3039 25.2519C93.0224 25.2519 91.3113 23.5926 90.1187 20.2741L89.2372 20.5333L89.4446 25.7185C91.3113 26.4444 93.3854 26.8074 95.6669 26.8074C98.052 26.8074 99.8669 26.2889 101.215 25.2C102.563 24.163 103.237 22.6593 103.237 20.7926C103.237 19.5481 102.926 18.5111 102.252 17.7333C101.578 16.9556 100.489 16.2815 98.9335 15.6593C97.2224 15.037 96.0298 14.4667 95.4076 13.9481C94.7854 13.4296 94.4743 12.8074 94.4743 12.0296C94.4743 11.2519 94.6817 10.6296 95.1483 10.1111C95.615 9.59259 96.1854 9.38519 96.9113 9.38519C98.9854 9.38519 100.489 10.8889 101.422 13.8444L102.304 13.5852L102.096 9.12593ZM52.215 8.65926C51.4891 8.2963 50.7113 8.14074 49.8298 8.14074C48.9483 8.14074 48.0669 8.5037 47.0817 9.22963C46.0965 9.95555 45.3706 10.9407 44.8002 12.2889L44.852 8.14074L36.9706 9.6963V10.4222L37.7483 10.4741C38.7335 10.5778 39.3039 11.3556 39.4076 12.7556C39.7187 15.9704 39.7187 19.3926 39.4076 23.0222C39.3039 24.4222 38.7335 25.1481 37.7483 25.3037L36.9706 25.4074V26.3926H47.9632V25.4074L46.5632 25.3037C45.578 25.2 45.0076 24.4222 44.9039 23.0222C44.5928 20.0148 44.5409 16.8 44.8002 13.4815C45.1113 12.963 45.7854 12.6519 46.8224 12.5481C47.8595 12.4444 49.052 12.7556 50.2965 13.4815L52.215 8.65926Z" fill="var(--fill-0, white)"/>
</g>
<defs>
<clipPath id="clip0_0_132">
<rect width="103.704" height="28" fill="white"/>
</clipPath>
</defs>
</svg>
