<svg overflow="visible" style="display: block;" viewBox="0 0 77.0249 76.1638" fill="none" xmlns="http://www.w3.org/2000/svg">
<g id="Group">
<g id="Group_2">
<path id="Vector" d="M8.16184 56.2651L8.69402 57.1029C8.9913 57.5706 8.89151 58.0758 8.43417 58.3668C7.98099 58.6558 7.45712 58.5206 7.17025 58.0695L6.95613 57.7328L6.1246 58.2608L5.80654 57.7598L8.15977 56.2651H8.16184ZM7.62551 57.7536C7.73984 57.9344 7.94357 57.9718 8.11403 57.8637C8.28242 57.7577 8.32815 57.5623 8.21382 57.3814L8.01217 57.0655L7.42386 57.4397L7.62551 57.7556V57.7536Z" fill="var(--fill-0, white)"/>
<path id="Vector_2" d="M8.4671 60.7172L8.69785 61.0124L10.0387 59.9605L9.80794 59.6653L10.2341 59.3306L11.0677 60.3929L10.6415 60.7276L10.4046 60.4262L9.06372 61.4781L9.30071 61.7795L8.87455 62.1142L8.04094 61.0519L8.4671 60.7172Z" fill="var(--fill-0, white)"/>
<path id="Vector_3" d="M10.8681 63.2182L12.9656 63.3679L12.9968 63.3367L11.9407 62.2432L12.3274 61.869L13.7971 63.3907L13.2151 63.952L11.1258 63.8003L11.0947 63.8314L12.184 64.9602L11.7973 65.3344L10.2922 63.7753L10.8681 63.2203V63.2182Z" fill="var(--fill-0, white)"/>
<path id="Vector_4" d="M13.9116 66.197L16.0132 66.1077L16.0403 66.0744L14.8657 65.1077L15.2067 64.692L16.8385 66.037L16.3251 66.6606L14.2317 66.7479L14.2047 66.7812L15.4166 67.779L15.0757 68.1948L13.4043 66.8186L13.9136 66.2012L13.9116 66.197Z" fill="var(--fill-0, white)"/>
<path id="Vector_5" d="M18.564 69.9374L17.6431 69.3429L17.1899 69.715L16.6536 69.3699L18.959 67.5385L19.6616 67.9917L18.9361 70.8417L18.4102 70.5029L18.5619 69.9374H18.564ZM18.7095 69.3865L19.0047 68.2764L18.9673 68.2536L18.0817 68.9812L18.7116 69.3865H18.7095Z" fill="var(--fill-0, white)"/>
<path id="Vector_6" d="M23.1523 72.0811L23.699 72.3098C23.6221 72.4927 23.6845 72.6528 23.8716 72.7318C24.0815 72.8191 24.2312 72.7089 24.304 72.5363L24.8299 71.2745L24.1231 70.9793L24.3372 70.4638L25.5907 70.9876L24.8507 72.7588C24.6615 73.2099 24.2603 73.5009 23.6429 73.2431C23.2084 73.0623 22.9215 72.6216 23.1481 72.079L23.1523 72.0811Z" fill="var(--fill-0, white)"/>
<path id="Vector_7" d="M28.3406 74.2468L27.2887 73.937L26.9603 74.4214L26.3491 74.2426L28.0413 71.8333L28.8437 72.0682L28.956 75.0076L28.3552 74.8309L28.3406 74.2447V74.2468ZM28.3261 73.6772L28.2928 72.5297L28.2512 72.5172L27.6068 73.4651L28.3261 73.6772Z" fill="var(--fill-0, white)"/>
<path id="Vector_8" d="M31.3901 72.6961L31.9743 72.7959L31.7934 73.8519L32.0678 73.8997L32.8661 72.9497L33.577 73.0703L32.5252 74.2531L33.1405 75.8268L32.4212 75.7042L31.968 74.4506L31.6978 74.4049L31.5024 75.5483L30.9182 75.4485L31.388 72.7003L31.3901 72.6961Z" fill="var(--fill-0, white)"/>
<path id="Vector_9" d="M34.9162 74.6334C34.9619 73.8185 35.6167 73.2281 36.4483 73.2738C37.2881 73.3196 37.866 73.9869 37.8203 74.7935C37.7746 75.6083 37.1239 76.207 36.2882 76.1613C35.4484 76.1156 34.8704 75.4566 34.9162 74.6334ZM37.207 74.7602C37.2341 74.2634 36.8931 73.8725 36.415 73.8476C35.9306 73.8206 35.5544 74.1719 35.5274 74.6687C35.5003 75.1739 35.8329 75.5626 36.3194 75.5896C36.7975 75.6167 37.1779 75.2653 37.207 74.7602Z" fill="var(--fill-0, white)"/>
<path id="Vector_10" d="M42.3664 75.1717L43.7281 73.569L43.7218 73.5253L42.2147 73.729L42.1419 73.1969L44.2374 72.9141L44.3455 73.7145L42.9859 75.3089L42.9922 75.3526L44.5471 75.1426L44.6199 75.6748L42.4725 75.9638L42.3664 75.1697V75.1717Z" fill="var(--fill-0, white)"/>
<path id="Vector_11" d="M48.47 71.9375L49.4304 71.6173L50.7359 73.4904L50.7733 73.4779L50.0811 71.3991L50.6403 71.212L51.5217 73.8562L50.5551 74.1785L49.2662 72.2992L49.2246 72.3138L49.9169 74.3926L49.3535 74.5797L48.4721 71.9354L48.47 71.9375Z" fill="var(--fill-0, white)"/>
<path id="Vector_12" d="M52.447 70.4781L54.0373 69.7422L54.2722 70.2473L53.2203 70.7338L53.4469 71.2223L54.3533 70.8024L54.5861 71.3054L53.6797 71.7254L53.925 72.2555L55.0123 71.7524L55.2451 72.2555L53.6194 73.0101L52.447 70.4801V70.4781Z" fill="var(--fill-0, white)"/>
<path id="Vector_13" d="M58.2593 69.9228L57.3218 70.4903L57.4569 71.0599L56.9122 71.3904L56.274 68.5154L56.9892 68.0809L59.2343 69.981L58.7 70.3053L58.2572 69.9207L58.2593 69.9228ZM57.829 69.5507L56.96 68.8002L56.9226 68.8231L57.1887 69.9373L57.829 69.5486V69.5507Z" fill="var(--fill-0, white)"/>
<path id="Vector_14" d="M59.1676 66.6232L59.9534 66.0183C60.392 65.6815 60.9055 65.7335 61.236 66.1617C61.5645 66.5879 61.4772 67.1221 61.0552 67.4485L60.7392 67.6917L61.34 68.4713L60.8702 68.833L59.1697 66.6232H59.1676ZM60.6976 67.0244C60.8681 66.8934 60.8868 66.6876 60.7621 66.5276C60.6415 66.3696 60.4419 66.3405 60.2715 66.4714L59.9742 66.7001L60.4003 67.2531L60.6976 67.0244Z" fill="var(--fill-0, white)"/>
<path id="Vector_15" d="M62.9367 65.3727C62.3671 64.7885 62.3754 63.9071 62.97 63.3251C63.5707 62.7388 64.4522 62.7638 65.0176 63.3417C65.5872 63.9258 65.5893 64.8114 64.9885 65.3956C64.3877 65.9818 63.5105 65.9631 62.9346 65.3727H62.9367ZM64.579 63.7699C64.2318 63.4144 63.7121 63.402 63.3712 63.7346C63.024 64.0734 63.0282 64.5869 63.3753 64.9424C63.7287 65.3041 64.2422 65.3228 64.5894 64.9819C64.9324 64.6472 64.9324 64.1296 64.579 63.7678V63.7699Z" fill="var(--fill-0, white)"/>
<path id="Vector_16" d="M65.2501 60.9753L65.6242 60.5159L67.3559 61.9274L68.0523 61.073L68.4805 61.4223L67.4079 62.7382L65.248 60.9774L65.2501 60.9753Z" fill="var(--fill-0, white)"/>
<path id="Vector_17" d="M67.3851 58.2046L68.3497 56.7411L68.8154 57.0487L68.1772 58.0154L68.6262 58.3106L69.1771 57.477L69.6386 57.7826L69.0877 58.6162L69.5762 58.9384L70.2352 57.9385L70.6967 58.2441L69.7113 59.7408L67.3851 58.2066V58.2046Z" fill="var(--fill-0, white)"/>
</g>
<path id="Vector_18" d="M1.12439e-05 42.1014V42.0328L1.01655 41.9767V34.4535L1.12439e-05 34.3973V34.3287H3.692V34.3973L2.67545 34.4535V41.9871H5.03075L6.1845 39.3574H6.2531V42.1014H1.12439e-05Z" fill="var(--fill-0, white)"/>
<path id="Vector_19" d="M10.3467 42.1026H7.8542V42.034L8.81461 41.0507L10.804 35.151L10.6336 34.6375V34.5689L12.1532 34.0554L14.7829 41.9778L15.5604 42.034V42.1026H12.0513V42.034L13.0804 41.9778L12.1885 39.292H9.52557L8.93103 41.0527L10.3488 42.036V42.1046L10.3467 42.1026ZM12.1407 39.1756L10.8602 35.3235L9.56922 39.1756H12.1407Z" fill="var(--fill-0, white)"/>
<path id="Vector_20" d="M17.0487 34.3287H20.4434C22.6948 34.3287 23.7009 35.0709 23.7009 36.2267C23.7009 37.21 22.8091 37.896 21.1523 38.0436C23.1293 38.0893 24.1583 38.6839 24.1583 39.9873C24.1583 41.2907 23.0274 42.1014 20.4434 42.1014H17.0487V42.0328L18.0653 41.9767V34.4535L17.0487 34.3973V34.3287ZM19.7242 34.4431V38.0103H20.5578C21.5639 38.0103 21.8944 37.6112 21.8944 36.2267C21.8944 34.8422 21.5618 34.4431 20.5578 34.4431H19.7242ZM19.7242 38.1247V41.9892H20.5578C21.8612 41.9892 22.3518 41.5318 22.3518 40.058C22.3518 38.5841 21.8612 38.1267 20.5578 38.1267H19.7242V38.1247Z" fill="var(--fill-0, white)"/>
<path id="Vector_21" d="M26.1603 38.2148C26.1603 35.8824 27.8753 34.2131 29.898 34.2131C31.9207 34.2131 33.6254 35.8824 33.6254 38.2148C33.6254 40.5472 31.9103 42.2165 29.898 42.2165C27.8857 42.2165 26.1603 40.5472 26.1603 38.2148ZM31.8189 38.2148C31.8189 35.0363 31.3387 34.3274 29.898 34.3274C28.4574 34.3274 27.9772 35.0363 27.9772 38.2148C27.9772 41.3933 28.4346 42.1022 29.898 42.1022C31.3615 42.1022 31.8189 41.3933 31.8189 38.2148Z" fill="var(--fill-0, white)"/>
<path id="Vector_22" d="M40.4166 34.3287H43.0692V34.3973L41.8344 35.312V42.2158H41.7658L36.656 35.8712V41.1078L38.0842 42.0328V42.1014H35.5459V42.0328L36.5396 41.1306V35.734L35.4649 34.3973V34.3287H37.5333L41.718 39.5299V35.312L40.4145 34.3973V34.3287H40.4166Z" fill="var(--fill-0, white)"/>
<path id="Vector_23" d="M51.0956 42.1014H44.5785V42.0328L45.5951 41.9767V34.4535L44.5785 34.3973V34.3287H50.9813V36.7859H50.9127L49.7132 34.4431H47.2561V38.1475H48.3869L49.1873 36.6508H49.2559V39.7607H49.1873L48.3869 38.2639H47.2561V41.9913H49.7943L51.0291 39.3615H51.0977V42.1056L51.0956 42.1014Z" fill="var(--fill-0, white)"/>
<path id="Vector_24" d="M54.777 42.0328L55.7936 41.9767V34.4431H54.4215L53.2782 36.9002H53.2096V34.3287H60.0344V36.9002H59.9658L58.8224 34.4431H57.4504V41.9767L58.4669 42.0328V42.1014H54.7749V42.0328H54.777Z" fill="var(--fill-0, white)"/>
<path id="Vector_25" d="M63.319 42.0328L64.3356 41.9767V34.4431H62.9635L61.8202 36.9002H61.7516V34.3287H68.5764V36.9002H68.5078L67.3644 34.4431H65.9924V41.9767L67.0089 42.0328V42.1014H63.3169V42.0328H63.319Z" fill="var(--fill-0, white)"/>
<path id="Vector_26" d="M71.8132 42.1026H69.3207V42.034L70.2811 41.0507L72.2706 35.151L72.098 34.6375V34.5689L73.6177 34.0554L76.2474 41.9778L77.0248 42.034V42.1026H73.5158V42.034L74.5448 41.9778L73.653 39.292H70.99L70.3955 41.0527L71.8132 42.036V42.1046V42.1026ZM73.6073 39.1756L72.3267 35.3235L71.0358 39.1756H73.6073Z" fill="var(--fill-0, white)"/>
<path id="Vector_27" d="M56.8183 13.547C58.7701 13.547 60.3523 11.9648 60.3523 10.013C60.3523 8.06127 58.7701 6.47905 56.8183 6.47905C54.8665 6.47905 53.2843 8.06127 53.2843 10.013C53.2843 11.9648 54.8665 13.547 56.8183 13.547Z" fill="var(--fill-0, white)"/>
<path id="Vector_28" d="M37.9699 8.83499C40.4096 8.83499 42.3874 6.85721 42.3874 4.41749C42.3874 1.97778 40.4096 0 37.9699 0C35.5302 0 33.5524 1.97778 33.5524 4.41749C33.5524 6.85721 35.5302 8.83499 37.9699 8.83499Z" fill="var(--fill-0, white)"/>
<path id="Vector_29" d="M17.5 12.6663C18.7205 12.6663 19.7098 11.6769 19.7098 10.4565C19.7098 9.23607 18.7205 8.24671 17.5 8.24671C16.2796 8.24671 15.2903 9.23607 15.2903 10.4565C15.2903 11.6769 16.2796 12.6663 17.5 12.6663Z" fill="var(--fill-0, white)"/>
<path id="Vector_30" d="M22.5076 15.6117C23.2401 15.6117 23.8339 15.0179 23.8339 14.2854C23.8339 13.5529 23.2401 12.9591 22.5076 12.9591C21.7751 12.9591 21.1813 13.5529 21.1813 14.2854C21.1813 15.0179 21.7751 15.6117 22.5076 15.6117Z" fill="var(--fill-0, white)"/>
<path id="Vector_31" d="M15.7327 22.9751C17.9291 22.9751 19.7095 21.1947 19.7095 18.9984C19.7095 16.802 17.9291 15.0216 15.7327 15.0216C13.5364 15.0216 11.756 16.802 11.756 18.9984C11.756 21.1947 13.5364 22.9751 15.7327 22.9751Z" fill="var(--fill-0, white)"/>
<path id="Vector_32" d="M65.9487 17.9664C67.4125 17.9664 68.5992 16.7797 68.5992 15.3159C68.5992 13.852 67.4125 12.6654 65.9487 12.6654C64.4848 12.6654 63.2982 13.852 63.2982 15.3159C63.2982 16.7797 64.4848 17.9664 65.9487 17.9664Z" fill="var(--fill-0, white)"/>
<path id="Vector_33" d="M25.5176 10.7698C23.5739 10.7698 21.994 9.18993 21.994 7.24624C21.994 5.30254 23.5739 3.72264 25.5176 3.72264C27.4613 3.72264 29.0412 5.30254 29.0412 7.24624C29.0412 9.18993 27.4613 10.7698 25.5176 10.7698ZM25.5176 4.78076C24.158 4.78076 23.05 5.88669 23.05 7.24832C23.05 8.60994 24.156 9.71587 25.5176 9.71587C26.8792 9.71587 27.9851 8.60994 27.9851 7.24832C27.9851 5.88669 26.8792 4.78076 25.5176 4.78076Z" fill="var(--fill-0, white)"/>
<path id="Vector_34" d="M8.82462 17.4967C7.6002 17.4967 6.60444 16.501 6.60444 15.2765C6.60444 14.0521 7.6002 13.0564 8.82462 13.0564C10.049 13.0564 11.0448 14.0521 11.0448 15.2765C11.0448 16.501 10.049 17.4967 8.82462 17.4967ZM8.82462 13.9024C8.06586 13.9024 7.45052 14.5198 7.45052 15.2765C7.45052 16.0332 8.06793 16.6506 8.82462 16.6506C9.58131 16.6506 10.1987 16.0332 10.1987 15.2765C10.1987 14.5198 9.58131 13.9024 8.82462 13.9024Z" fill="var(--fill-0, white)"/>
<path id="Vector_35" d="M5.86654 24.9808C4.47789 24.9808 3.34701 23.8499 3.34701 22.4613C3.34701 21.0726 4.47789 19.9418 5.86654 19.9418C7.25519 19.9418 8.38607 21.0726 8.38607 22.4613C8.38607 23.8499 7.25519 24.9808 5.86654 24.9808ZM5.86654 20.7878C4.94354 20.7878 4.19309 21.5383 4.19309 22.4613C4.19309 23.3843 4.94354 24.1347 5.86654 24.1347C6.78954 24.1347 7.53999 23.3843 7.53999 22.4613C7.53999 21.5383 6.78954 20.7878 5.86654 20.7878Z" fill="var(--fill-0, white)"/>
<path id="Vector_36" d="M48.5511 7.2644C47.4929 7.2644 46.6302 6.40377 46.6302 5.34357C46.6302 4.28337 47.4909 3.42274 48.5511 3.42274C49.6113 3.42274 50.4719 4.28337 50.4719 5.34357C50.4719 6.40377 49.6113 7.2644 48.5511 7.2644ZM48.5511 4.26882C47.9586 4.26882 47.4763 4.75111 47.4763 5.34357C47.4763 5.93604 47.9586 6.41832 48.5511 6.41832C49.1435 6.41832 49.6258 5.93604 49.6258 5.34357C49.6258 4.75111 49.1435 4.26882 48.5511 4.26882Z" fill="var(--fill-0, white)"/>
<path id="Vector_37" d="M60.808 20.3678C59.7499 20.3678 58.8872 19.5072 58.8872 18.447C58.8872 17.3868 59.7478 16.5262 60.808 16.5262C61.8682 16.5262 62.7289 17.3868 62.7289 18.447C62.7289 19.5072 61.8682 20.3678 60.808 20.3678ZM60.808 17.3723C60.2156 17.3723 59.7333 17.8545 59.7333 18.447C59.7333 19.0395 60.2156 19.5218 60.808 19.5218C61.4005 19.5218 61.8828 19.0395 61.8828 18.447C61.8828 17.8545 61.4005 17.3723 60.808 17.3723Z" fill="var(--fill-0, white)"/>
<path id="Vector_38" d="M70.5281 25.1744C68.9149 25.1744 67.6032 23.8626 67.6032 22.2495C67.6032 20.6363 68.9149 19.3246 70.5281 19.3246C72.1413 19.3246 73.453 20.6363 73.453 22.2495C73.453 23.8626 72.1413 25.1744 70.5281 25.1744ZM70.5281 20.3827C69.4991 20.3827 68.6613 21.2204 68.6613 22.2495C68.6613 23.2785 69.4991 24.1162 70.5281 24.1162C71.5571 24.1162 72.3949 23.2785 72.3949 22.2495C72.3949 21.2204 71.5571 20.3827 70.5281 20.3827Z" fill="var(--fill-0, white)"/>
</g>
</svg>
