<svg overflow="visible" style="display: block;" viewBox="0 0 53.0803 51" fill="none" xmlns="http://www.w3.org/2000/svg">
<g id="g1988">
<path id="path26" fill-rule="evenodd" clip-rule="evenodd" d="M0 21.4812C0 33.228 8.52798 42.9623 20.9141 42.9623C33.2336 42.9623 41.7615 33.228 41.7615 21.4812C41.7615 9.01164 33.3892 0 20.9141 0C8.37233 0 0 9.01164 0 21.4812ZM8.04989 21.4812C8.04989 13.677 12.7975 6.11524 20.9141 6.11524C28.964 6.11524 33.7117 13.677 33.7117 21.4812C33.7117 28.8028 29.7757 36.8482 20.9141 36.8482C11.9859 36.8482 8.04989 28.8028 8.04989 21.4812Z" fill="var(--fill-0, white)"/>
<path id="path28" d="M53.0802 50.9999V48.1358H45.664C48.6327 45.2205 52.502 41.6803 52.502 37.8277C52.502 34.2608 50.2672 32.5174 46.8093 32.5174C44.9636 32.5174 43.0623 32.9867 41.4167 33.8194L41.7058 36.8392C42.8955 36.0576 44.3632 35.3805 45.8975 35.3805C47.3763 35.3805 48.8662 36.1621 48.8662 37.8277C48.8662 41.1599 42.6954 46.3145 41.0053 47.9545V50.9999H53.0802Z" fill="var(--fill-0, white)"/>
</g>
</svg>
