<svg overflow="visible" style="display: block;" viewBox="0 0 119.893 16.86" fill="none" xmlns="http://www.w3.org/2000/svg">
<g id="S&#204;&#140;koda_Auto_logo 1" clip-path="url(#clip0_0_22)">
<path id="path107" d="M0.475819 16.3592L2.67929 13.0016H15.4594C16.1834 13.0016 16.6556 12.5518 16.6556 11.8623V9.91364H5.6697C2.39598 9.91364 0.948018 8.53471 0.948018 5.47681V4.15775C0.948018 1.87932 2.36451 0.500288 4.59945 0.500288H4.85127V5.41685C4.85127 6.10631 5.32347 6.55601 6.04745 6.55601H16.687C19.1108 6.55601 20.5588 7.93504 20.5588 10.1835V11.9223C20.5588 14.8902 19.0164 16.3592 15.8372 16.3592H0.475819ZM77.0599 12.9416H86.9439C88.5809 12.9416 89.6196 11.9822 89.6196 10.4833V6.37621C89.6196 4.87725 88.5809 3.91788 86.9439 3.91788H77.0599V12.9416ZM73.0937 16.3592V0.500288H87.0385C91.1935 0.500288 93.5859 2.77872 93.5859 6.55601V10.3034C93.5859 14.0808 91.1935 16.3592 87.0385 16.3592H73.0937ZM53.8728 12.9416H62.2145C63.7254 12.9416 64.7012 12.0422 64.7012 10.6332V6.22625C64.7012 4.81728 63.7254 3.91788 62.2145 3.91788H53.8728C52.3619 3.91788 51.3861 4.81728 51.3861 6.22625V10.6331C51.3861 12.0422 52.3619 12.9416 53.8728 12.9416ZM62.3089 16.3592H53.7784C49.7492 16.3592 47.4198 14.1407 47.4198 10.4533V6.40614C47.4198 2.71875 49.7491 0.500288 53.7784 0.500288H62.3089C66.3381 0.500288 68.6675 2.71875 68.6675 6.40614V10.4533C68.6675 14.1407 66.3382 16.3592 62.3089 16.3592ZM95.211 16.3592L104.56 0.500288H110.069L119.418 16.3592H114.885L113.279 13.6311H105.315L103.175 10.3934L99.6495 16.3592H95.211ZM103.269 10.2135H111.265L107.267 3.46818L103.269 10.2135ZM8.75456 3.79795L6.48814 0.500288H20.1811L17.9776 3.79795H8.75456ZM24.9232 16.3592V0.500288H28.8895V6.67594H34.1464L40.9771 0.500288H46.2339L37.546 8.38474L46.3913 16.3592H40.8197L33.989 10.0935H28.8895V16.3592H24.9232Z" fill="var(--fill-0, white)"/>
</g>
<defs>
<clipPath id="clip0_0_22">
<rect width="119.893" height="16.86" fill="white"/>
</clipPath>
</defs>
</svg>
