<svg overflow="visible" style="display: block;" viewBox="0 0 103.996 50.73" fill="none" xmlns="http://www.w3.org/2000/svg">
<g id="Group">
<g id="Group_2">
<path id="Vector" d="M103.996 50.73H53.2664V0H103.996V50.73ZM53.7543 50.2421H103.509V0.488222H53.7543V50.2421Z" fill="var(--fill-0, white)"/>
<path id="Vector_2" d="M93.7848 7.32892V15.3327H97.0971V7.32892H99.9527V4.88638H90.912V7.32892H93.7848ZM82.9018 4.88638H79.5898V11.4767C79.5898 14.3953 81.8373 15.5779 84.5407 15.5779C87.2453 15.5779 89.492 14.3949 89.492 11.4767V4.88638H86.1801V11.2C86.1801 12.383 85.4707 12.9055 84.5407 12.9055C83.6115 12.9055 82.9018 12.3833 82.9018 11.2V4.88638ZM70.3637 15.3327H74.4531L78.1201 4.88638H74.4023L72.4419 12.2448H72.3746L70.4138 4.88638H66.6959L70.3637 15.3327ZM56.7099 10.1097C56.7099 13.4432 59.2949 15.5016 62.6746 15.5016C64.0437 15.5016 65.1926 15.1791 65.8856 14.8566V12.2294C65.2266 12.5523 64.4657 12.8289 63.2662 12.8289C62.0668 12.8289 60.3261 11.9989 60.3261 10.1097C60.3261 8.22018 61.9147 7.32892 63.452 7.32892C64.5 7.32892 65.2266 7.5444 65.8688 7.83576V5.24002C65.1926 4.96334 64.3479 4.74822 62.996 4.74822C59.5999 4.74822 56.7099 6.77591 56.7099 10.1097Z" fill="var(--fill-0, white)"/>
</g>
<path id="Vector_3" d="M58.8523 2.21646L61.0153 4.42671H64.2671L66.4301 2.21646H63.7467L62.6733 3.27846H62.6095L61.5365 2.21646H58.8523Z" fill="var(--fill-0, white)"/>
<g id="Group_3">
<path id="Vector_4" d="M50.73 50.73H0V2.13623e-06H50.73V50.73ZM0.488222 50.2421H50.2421V0.488224H0.488222V50.2421Z" fill="var(--fill-0, white)"/>
</g>
<g id="Group_4">
<path id="Vector_5" d="M8.27746 22.3194C8.66403 22.5303 9.12004 22.6709 9.64692 22.7762L10.1033 24.883L7.99648 33.9423L7.04832 34.6095L4.41535 45.9155L2.27312 47.5656L8.27746 22.3194ZM10.0331 22.3549C8.06664 22.3194 6.48636 20.7746 6.48636 18.8435C6.48636 16.7718 8.10207 15.2968 10.1384 15.2968C11.0865 15.2968 11.9291 15.7181 12.4911 16.4203C11.6836 16.3151 10.9111 16.8771 10.6652 17.5092C10.4548 17.439 10.2787 17.439 10.1384 17.439C9.33086 17.439 8.69875 18.0711 8.69875 18.8435C8.69875 19.616 9.33086 20.2832 10.1384 20.2832C10.9459 20.2832 11.4377 19.6507 11.4377 18.8435C11.4377 18.8081 11.4377 18.7383 11.4377 18.7029C11.4731 18.6678 11.5429 18.6678 11.6481 18.6678C11.7888 18.6678 11.9291 18.7383 11.9291 18.9839C11.9291 19.2648 11.8235 19.7914 11.8235 20.3182C11.8235 20.81 11.9291 21.1608 12.0698 21.5119L13.2635 26.498C13.0877 26.6383 12.9124 26.8137 12.7717 27.0248C12.1041 27.1655 11.5425 27.5864 11.2966 28.1835L10.0331 22.3549ZM17.3719 25.6554C16.3535 25.6554 15.7214 25.7255 15.0192 25.7255C13.9307 25.7255 13.1232 25.2688 12.8776 24.3912C13.2993 24.3912 13.615 24.04 13.615 23.6187C13.615 22.7762 12.3157 21.9336 12.3157 20.3179C12.3157 19.791 12.3858 19.2999 12.3858 18.9133C12.3858 18.4921 12.0351 18.2111 11.6485 18.2111C11.3328 18.2111 11.0518 18.3517 10.9115 18.4921C10.841 17.5088 11.6485 16.7715 12.6668 16.8416C12.8071 16.5256 13.334 16.1394 13.931 16.1394C14.3523 16.1394 14.5635 16.2449 14.7736 16.3856C14.9494 16.3155 15.1602 16.2804 15.4408 16.2804C16.2487 16.2804 17.1263 16.9476 17.1263 17.9655C17.1263 18.9137 16.5644 19.3701 16.0028 19.7563C15.7218 19.9667 15.6516 20.1776 15.6871 20.4936C15.7218 20.8802 15.9326 21.5474 16.0375 21.8982C16.1431 22.2142 16.389 22.3545 16.7752 22.3194C18.7062 22.1788 21.4806 21.9687 23.1657 21.8982C24.7457 21.828 25.8692 21.7929 27.1685 21.7228C24.7106 22.3194 23.306 23.9699 22.9195 26.3226L21.7959 26.9193C21.5504 25.9711 20.2862 25.6554 17.3719 25.6554ZM15.7919 35.1714C16.2132 35.0658 16.424 34.7498 16.424 34.4692C16.424 34.0475 16.1781 33.7665 15.8624 33.5554C15.3356 33.2397 14.7736 32.9587 14.2825 32.5374C13.7556 32.0814 13.4399 31.6948 13.1235 31.2735C12.8776 30.9925 12.6668 30.887 12.3511 30.887C11.9645 30.887 11.6839 31.1676 11.6839 31.484C11.6839 31.6597 11.7194 31.8 11.7892 31.9056C11.2623 31.7299 10.9466 31.1676 10.9466 30.5709C10.9466 30.0097 11.2977 29.588 11.6488 29.3775C11.6138 29.272 11.5787 29.1313 11.5787 28.9559C11.5787 28.2182 12.1757 27.5159 13.1235 27.4461C13.2993 26.9543 13.8254 26.5681 14.5281 26.5681C15.3706 26.5681 16.2487 27.2002 16.2487 28.3238C16.2487 28.8854 16.108 29.0257 16.108 29.4473C16.108 29.6936 16.1781 29.9034 16.5296 30.2552C16.9509 30.6768 17.1614 30.922 17.4073 30.922C17.6532 30.922 17.7935 30.8168 18.0745 30.606C19.6544 29.2716 21.0239 27.8674 22.9195 26.8487C22.9549 28.4988 23.5867 29.8336 24.9561 30.8519L23.762 31.7646C23.5519 31.5541 23.3408 31.484 23.0598 31.484C22.6034 31.484 22.1474 31.6597 21.4448 32.1161C20.6373 32.6433 19.3029 34.0124 18.3551 34.9252C17.8282 35.4524 17.2663 35.7334 16.7394 35.7334C16.3181 35.733 15.9673 35.5569 15.7919 35.1714ZM12.8068 28.71C12.3508 28.71 12.0347 28.9563 11.9642 29.2369C12.1045 29.2014 12.2802 29.1667 12.4911 29.1667C13.0179 29.1667 13.4743 29.413 13.6848 29.8339C13.79 29.1664 13.4042 28.71 12.8068 28.71ZM16.1076 45.9152L13.4743 34.6091L12.5261 33.9419L12.0701 31.7646C12 31.484 12.1403 31.3437 12.3511 31.3437C12.4914 31.3437 12.597 31.4138 12.7377 31.5541C13.1937 32.0814 13.475 32.3967 13.9665 32.818C14.2474 33.0643 14.5986 33.2744 14.9497 33.4505L17.1267 42.896C16.7755 43.2117 16.53 43.7035 16.53 44.23C16.53 44.6166 16.6349 44.9677 16.811 45.2838C16.7405 45.4588 16.7054 45.6342 16.7054 45.845C16.7054 46.0558 16.7405 46.2667 16.846 46.4771L16.1076 45.9152ZM14.387 17.8252C14.387 17.2285 13.8956 16.842 13.4392 16.842C13.2284 16.842 13.0877 16.9125 12.9825 16.9476C13.5795 17.1935 14.0012 17.72 13.9658 18.7029C14.2822 18.4924 14.387 18.1413 14.387 17.8252ZM14.949 28.1835C14.949 27.7271 14.5628 27.3058 14.071 27.3058C13.79 27.3058 13.615 27.4111 13.5094 27.4812C14.1766 27.6219 14.7035 28.1835 14.7385 28.8857C14.8438 28.71 14.949 28.5346 14.949 28.1835ZM16.0726 17.6148C16.0726 17.0879 15.6162 16.7013 15.0893 16.7013C15.3001 16.8771 15.511 17.2983 15.511 17.7551C15.511 17.9655 15.4755 18.2465 15.3352 18.5626C15.7565 18.4219 16.0726 18.1058 16.0726 17.6148ZM17.1961 45.845C17.1961 45.5991 17.2315 45.4588 17.3364 45.2129C17.1607 45.0024 17.0204 44.6513 17.0204 44.2297C17.0204 43.808 17.2312 43.3524 17.6875 43.071C17.5469 42.018 18.3898 41.3154 19.338 41.3154C20.391 41.3154 20.9179 42.0534 21.0933 42.7904C21.234 43.3176 21.4448 43.4927 21.6903 43.5278C22.1471 43.5983 22.884 43.5278 23.1654 43.458C23.4811 43.3874 23.6214 43.2117 23.6214 42.6852C23.6568 38.9985 23.2001 36.6458 23.2001 35.3117C23.2001 33.8721 24.008 33.24 24.8505 32.959C25.9744 32.5728 28.1865 32.2568 29.275 32.2918C29.766 32.2918 30.0123 32.6083 30.2224 32.9243C30.609 33.521 30.9247 34.1531 31.3112 34.9602C31.0299 35.1013 30.8896 35.3468 30.8896 35.6983C30.8896 36.1894 31.1706 36.611 31.5568 36.8219L27.4481 36.9271C27.4126 37.1734 27.4126 37.4189 27.4126 37.6294C27.4126 38.0857 27.729 38.4021 28.1507 38.4021C28.4667 38.4021 28.7477 38.2965 28.9933 38.0857C29.1339 39.5257 28.2556 39.9817 27.3435 40.0168C27.3786 41.3161 27.4484 42.2642 27.4484 44.6173C27.4484 46.3025 26.6058 47.3208 25.4121 47.3208C25.4823 47.251 25.5174 47.1454 25.5174 47.0402C25.5174 46.373 24.7797 46.0569 24.2531 46.0569C23.1994 46.0569 22.6378 46.8995 21.4791 46.8995C20.4608 46.8995 20.0395 46.0569 19.2668 46.0569C18.7753 46.0569 18.4238 46.373 18.4238 46.7943C18.4238 47.0051 18.4943 47.1805 18.6346 47.3562C17.9685 47.3551 17.1961 46.723 17.1961 45.845ZM18.5656 43.949C17.8987 43.949 17.5476 44.4756 17.6178 44.8969C17.7584 44.7218 18.0394 44.4752 18.601 44.4752C19.0577 44.4752 19.4085 44.6864 19.6197 44.9316C19.6193 44.4405 19.2678 43.949 18.5656 43.949ZM18.8816 42.334C18.32 42.334 18.039 42.6501 18.0036 42.9307C18.1439 42.8606 18.3551 42.7901 18.6708 42.7901C19.2324 42.7901 19.6888 43.1058 19.8291 43.4222C19.8999 42.8606 19.5488 42.334 18.8816 42.334ZM23.4464 26.8842C23.4464 24.5666 25.202 22.4948 27.9059 21.8631C28.9242 21.6172 29.8018 21.4765 30.9955 21.1608C33.243 20.5641 33.9453 19.5809 33.9453 18.2816C33.9453 17.9305 33.8748 17.6495 33.6994 17.3685C33.7341 17.5793 33.7341 17.7551 33.7341 17.9652C33.7341 19.3697 32.4351 20.6339 30.5392 20.8093C29.5205 20.8795 28.432 21.0201 27.379 21.1254C27.1327 21.1605 27.0278 21.0549 27.0278 20.8444L26.9924 19.1592C26.9924 19.0887 27.0278 19.0186 27.1331 19.0186C27.2036 19.0186 27.2387 19.0533 27.2737 19.1238C27.4846 19.4399 27.9062 19.7559 28.5029 19.7559C28.9943 19.7559 29.2757 19.4749 29.2757 19.1592C29.2757 18.8078 28.9589 18.4921 28.3275 18.4921C26.958 18.4921 26.2558 19.4399 24.7457 19.4399C23.0956 19.4399 22.5336 18.6324 22.5336 17.8596C22.5336 17.2275 22.8848 16.8413 23.3411 16.6308C23.2005 16.8062 23.1657 16.9465 23.1657 17.1924C23.1657 17.7189 23.7978 18.1406 24.921 18.1406C25.9748 18.1406 26.642 17.8947 27.4491 17.8947C28.5025 17.8947 29.1346 18.2454 29.4156 18.632C29.3802 17.8245 28.7835 17.1219 28.0111 17.1219C27.4842 17.1219 27.2734 17.4379 27.2036 17.5786C27.1681 17.6835 27.098 17.7189 27.0278 17.7189C26.9577 17.7189 26.8875 17.6835 26.8875 17.614L26.7114 15.858C26.6767 15.6476 26.7819 15.5423 27.0629 15.5072L28.8537 15.3669C29.1697 16.2446 29.3802 16.736 29.8365 16.736C30.0824 16.736 30.1877 16.4551 30.1877 16.2095C30.5742 16.1043 30.9601 16.1043 31.346 16.139C30.8899 15.8233 29.3798 15.9987 28.9235 15.3669C29.6604 15.3315 30.2224 15.2964 30.8194 15.2964C31.4165 15.2964 31.9433 15.2964 32.4348 15.3669C32.9964 15.4367 33.5583 15.7531 33.5583 16.3502C33.5583 16.7364 33.3479 17.017 32.9617 17.017C32.821 17.017 32.7154 16.9816 32.5755 16.8767C32.6105 17.1573 32.8912 17.3334 33.1721 17.3334C33.6285 17.3334 33.9449 17.0524 33.9449 16.4554C33.9449 16.139 33.8744 15.7886 33.6285 15.5076C34.3666 16.1043 34.8222 17.1577 34.8222 18.3865C34.8222 20.5287 34.0501 21.6523 31.662 22.4948C30.4332 22.9165 29.4503 23.1971 28.2216 23.6538C26.22 24.3908 25.0259 25.7603 25.0259 27.6913C25.0259 29.0257 25.6931 30.5355 27.0976 31.2377C24.9561 30.9575 23.4464 29.0261 23.4464 26.8842ZM25.5532 27.7969C25.5532 25.9013 26.6066 24.7774 28.6432 24.0046C29.7668 23.5833 30.8556 23.2676 31.8736 22.9519C34.3669 22.0739 35.2442 20.7746 35.2442 18.4573C35.2442 17.4741 34.9636 16.5259 34.5069 15.9643C35.2789 16.6315 35.9114 17.6495 35.9114 19.4051C35.9114 21.231 35.3845 23.0922 32.8564 24.04C31.6624 24.4968 30.9955 24.7423 29.7317 25.2688C27.7655 26.1118 27.1331 27.2353 27.1331 28.7451C27.1331 30.1843 27.9059 30.9922 28.5025 31.4836C27.0629 31.2381 25.5532 29.763 25.5532 27.7969ZM27.6596 28.7802C27.6596 27.3756 28.3268 26.4278 30.0474 25.6203C31.1358 25.1285 31.9437 24.9531 33.2076 24.4262C35.7006 23.443 36.3327 21.5821 36.3327 19.4402C36.3327 18.7025 36.2271 17.8249 35.8405 17.0875C36.3678 17.7196 36.9995 18.7025 36.9995 20.6339C36.9995 22.6355 36.3327 24.4968 34.1199 25.5849C33.0669 26.0767 32.3643 26.3573 31.1709 26.9193C29.8015 27.6219 29.029 28.6048 29.029 29.763C29.029 30.6768 29.4507 31.3791 29.8365 31.7646C28.5025 31.3791 27.6596 30.1149 27.6596 28.7802ZM30.8552 14.9109C30.153 14.9109 29.4507 14.9464 28.7134 15.0162L27.7655 13.1553H29.3805C29.3805 13.5765 29.6966 13.8926 30.0828 13.8926C30.469 13.8926 30.7851 13.5765 30.7851 13.1553H32.2247C32.2247 13.6113 32.5057 13.8926 32.927 13.8926C33.3132 13.8926 33.6292 13.5064 33.6292 13.1553H35.2446L34.1557 15.0867C33.2781 14.9811 32.1542 14.9109 30.8552 14.9109ZM29.5559 29.7985C29.5559 28.8156 30.2228 28.0077 31.4168 27.3756C32.2594 26.9543 32.9617 26.6734 34.3666 25.9707C36.5782 24.8826 37.4208 23.0922 37.4208 20.669C37.4208 20.0369 37.3156 19.51 37.21 18.8786C37.5966 19.6507 37.9123 20.5638 37.9123 21.7224C37.9123 24.0397 37.1048 26.2868 34.7875 27.4809C33.8046 27.9723 33.243 28.2887 32.5053 28.6391C31.3814 29.1309 30.8552 29.903 30.8552 30.8164C30.8552 31.5187 31.0303 31.9049 31.206 32.221C30.188 31.9407 29.5559 31.0276 29.5559 29.7985ZM31.3463 35.7681C31.3463 35.417 31.4519 35.2061 31.8736 35.136C31.3818 34.0475 30.9955 33.3452 30.7149 32.8885C30.6097 32.7131 30.7149 32.6079 30.8556 32.6079C31.0661 32.6079 31.2418 32.6781 31.3821 32.8885C31.628 33.2049 31.9441 33.696 32.1896 34.1524C32.6463 34.9599 32.9273 35.733 32.9624 36.8566H32.6113C31.8736 36.8566 31.3463 36.3297 31.3463 35.7681ZM33.8397 45.845C33.8397 45.5991 33.8748 45.4588 33.9804 45.2129C33.805 45.0024 33.6643 44.6513 33.6643 44.2297C33.6643 43.808 33.8748 43.3524 34.3315 43.071C34.1905 42.018 35.0338 41.3154 35.9812 41.3154C37.035 41.3154 37.5615 42.0534 37.7372 42.7904C37.8775 43.3176 38.088 43.4927 38.3339 43.5278C38.7903 43.5983 39.5276 43.5278 39.8086 43.458C40.125 43.3874 40.265 43.2117 40.265 42.6852C40.265 41.8075 40.0191 40.6489 39.8086 39.6656C39.2817 39.7354 37.9824 39.8063 36.9995 39.8063C34.8222 39.8063 33.5934 38.8231 33.383 36.6812C33.3124 35.8035 33.1367 34.9602 32.6102 34.0128C32.224 33.2751 31.346 32.2918 31.346 31.028C31.346 30.0802 31.6971 29.5182 32.7856 28.9921C33.558 28.6406 34.4711 28.2193 35.2435 27.7625C35.2084 28.9921 35.9458 30.6421 36.8939 31.3444C37.9466 32.1165 38.9299 32.3273 40.3698 32.3273C42.0199 32.3273 43.6002 31.8355 44.4431 30.8526C43.9517 31.1683 43.2841 31.3444 42.4416 31.3444C39.8433 31.3444 38.1929 29.3428 38.1929 27.2009C38.1929 25.6561 39.0355 24.2863 40.44 23.128C41.5983 22.1798 42.6524 21.5832 43.4599 20.7753C43.9864 20.2488 44.4431 19.6167 44.4431 18.8797C44.4431 18.0017 43.8461 17.1587 43.2143 16.9132C43.5648 16.4919 44.267 16.1057 44.8995 16.1057C45.9525 16.1057 46.9358 16.8781 46.9358 17.8965C46.9358 18.6685 46.4794 19.2656 45.8827 19.5465C45.9178 20.1436 45.5312 20.9156 45.0749 21.4078C44.1972 22.3556 42.5819 23.3739 41.5288 24.2169C40.4751 25.0594 39.9131 25.9374 39.9131 27.1312C39.9131 28.7111 41.1773 29.8697 42.7927 29.8697C44.3021 29.8697 45.6018 28.7111 45.6018 27.0957C45.6018 25.6214 44.5484 24.5325 42.9334 23.7956L44.2674 22.8474C45.707 23.69 47.2876 24.8486 47.2876 27.342C47.2876 30.7828 44.5136 33.803 40.0191 33.803C38.6142 33.803 38.228 33.6273 37.3503 33.2758C37.9119 33.803 38.5086 34.5751 38.544 35.5226C39.2463 35.7341 39.7381 35.8393 41.2478 35.8393C41.9154 35.8393 42.8281 35.7341 43.5655 35.5226C44.0923 35.3822 44.408 35.1721 44.5841 34.9259C44.7595 35.2069 44.8648 35.5226 44.8648 35.8039C44.8648 36.6114 44.2677 37.2431 43.6356 37.3838C43.8819 39.8768 44.092 42.3698 44.092 44.6173C44.092 46.3025 43.2494 47.3208 42.0557 47.3208C42.1259 47.251 42.1609 47.1454 42.1609 47.0402C42.1609 46.373 41.4236 46.0569 40.8967 46.0569C39.844 46.0569 39.2817 46.8995 38.1234 46.8995C37.1048 46.8995 36.6835 46.0569 35.911 46.0569C35.4189 46.0569 35.0685 46.373 35.0685 46.7943C35.0685 47.0051 35.1379 47.1805 35.2786 47.3562C34.6121 47.3551 33.8397 46.723 33.8397 45.845ZM35.2091 43.949C34.5419 43.949 34.1905 44.4756 34.261 44.8969C34.402 44.7218 34.6826 44.4752 35.2442 44.4752C35.7006 44.4752 36.0521 44.6864 36.2625 44.9316C36.2625 44.4405 35.9114 43.949 35.2091 43.949ZM35.5248 42.334C34.9636 42.334 34.6823 42.6501 34.6475 42.9307C34.7879 42.8606 34.9983 42.7901 35.3144 42.7901C35.876 42.7901 36.3331 43.1058 36.473 43.4222C36.5432 42.8606 36.192 42.334 35.5248 42.334ZM39.9142 19.4757C39.3877 19.1947 38.9309 18.598 38.9309 17.8957C38.9309 16.8774 39.809 16.105 40.8624 16.105C41.6699 16.105 42.2318 16.4912 42.5829 16.9125C41.9161 17.2633 41.3892 18.1062 41.3892 18.879C41.3892 19.8969 41.9161 20.5291 42.4072 21.0556L41.1083 22.0037C40.3705 21.3362 39.9142 20.4585 39.9142 19.4757Z" fill="var(--fill-0, white)"/>
</g>
<g id="Group_5">
<path id="Vector_6" d="M57.1381 34.428C57.1381 33.4386 57.9177 32.8373 58.8333 32.8373C59.198 32.8373 59.4257 32.9014 59.6082 32.983V33.7533C59.4353 33.6666 59.2388 33.6029 58.9568 33.6029C58.5416 33.6029 58.1135 33.8674 58.1135 34.428C58.1135 34.9885 58.5827 35.2348 58.9067 35.2348C59.2302 35.2348 59.4357 35.1528 59.6132 35.0572V35.8364C59.4264 35.9324 59.1164 36.0279 58.7474 36.0279C57.8354 36.0276 57.1381 35.4169 57.1381 34.428ZM57.6439 31.9894H58.4188L58.7284 32.3265H58.747L59.057 31.9894H59.8319L59.207 32.6909H58.2685L57.6439 31.9894Z" fill="var(--fill-0, white)"/>
<path id="Vector_7" d="M60.281 32.8779H62.419V33.5848H61.1748V34.0816H62.3775V34.7699H61.1748V35.2711H62.419V35.9776H60.281V32.8779Z" fill="var(--fill-0, white)"/>
<path id="Vector_8" d="M63.1235 35.8136V35.0018C63.3243 35.1436 63.7388 35.3215 64.149 35.3215C64.45 35.3215 64.614 35.2349 64.614 35.0799C64.614 34.9564 64.5005 34.902 64.3316 34.8612C64.1308 34.8107 64.0076 34.7835 63.775 34.7241C63.3562 34.6196 63.087 34.3185 63.087 33.84C63.087 33.2107 63.6568 32.8052 64.4268 32.8052C64.7919 32.8052 65.1201 32.8779 65.3205 32.9645V33.7344C65.1655 33.6478 64.8509 33.5293 64.4726 33.5293C64.1261 33.5293 63.9715 33.6163 63.9715 33.753C63.9715 33.8711 64.0624 33.9309 64.2721 33.9764C64.4271 34.0082 64.5409 34.0268 64.746 34.0766C65.2522 34.1997 65.512 34.4957 65.512 35.0015C65.512 35.5166 65.0424 36.0499 64.1945 36.0499C63.7302 36.0502 63.3744 35.9543 63.1235 35.8136Z" fill="var(--fill-0, white)"/>
<path id="Vector_9" d="M68.0218 35.9776L67.1237 34.4872V35.9776H66.2307V32.8783H67.1237V34.3046L67.9899 32.8783H69.0791L68.0443 34.3776L69.0927 35.9776H68.0218Z" fill="var(--fill-0, white)"/>
<path id="Vector_10" d="M69.6651 32.8778H71.803V33.5847H70.5589V34.0815H71.7615V34.7698H70.5589V35.2709H71.803V35.9775H69.6651V32.8778ZM70.6723 31.9894H71.7114L71.0689 32.6909H70.3126L70.6723 31.9894Z" fill="var(--fill-0, white)"/>
<path id="Vector_11" d="M73.2411 32.8779H74.2441L74.7727 35.1977H74.791L75.32 32.8779H76.3229L75.3927 35.9773H74.1714L73.2411 32.8779Z" fill="var(--fill-0, white)"/>
<path id="Vector_12" d="M77.4602 34.8426L76.4115 32.8783H77.423L77.9109 33.9861H77.9291L78.4353 32.8783H79.4242L78.3533 34.8426V35.9776H77.4602V34.8426Z" fill="var(--fill-0, white)"/>
<path id="Vector_13" d="M79.7191 35.8136V35.0018C79.9199 35.1436 80.3347 35.3215 80.7445 35.3215C81.0456 35.3215 81.2095 35.2349 81.2095 35.0799C81.2095 34.9564 81.0957 34.902 80.9267 34.8612C80.7263 34.8107 80.6035 34.7835 80.3705 34.7241C79.9514 34.6196 79.6822 34.3185 79.6822 33.84C79.6822 33.2107 80.2524 32.8052 81.0223 32.8052C81.3874 32.8052 81.7153 32.8779 81.9157 32.9645V33.7344C81.7604 33.6478 81.4465 33.5293 81.0681 33.5293C80.7216 33.5293 80.567 33.6163 80.567 33.753C80.567 33.8711 80.6579 33.9309 80.8677 33.9764C81.0227 34.0082 81.1368 34.0268 81.3416 34.0766C81.8473 34.1997 82.1076 34.4957 82.1076 35.0015C82.1076 35.5166 81.6379 36.0499 80.7904 36.0499C80.325 36.0502 79.97 35.9543 79.7191 35.8136Z" fill="var(--fill-0, white)"/>
<path id="Vector_14" d="M82.6392 34.4281C82.6392 33.3929 83.2727 32.8056 84.1933 32.8056C85.1186 32.8056 85.7385 33.3933 85.7385 34.4281C85.7385 35.4629 85.1186 36.0502 84.1933 36.0502C83.2724 36.0502 82.6392 35.4625 82.6392 34.4281ZM84.7814 34.4281C84.7814 33.9173 84.5946 33.5987 84.193 33.5987C83.7967 33.5987 83.5959 33.9177 83.5959 34.4281C83.5959 34.9385 83.7967 35.2578 84.193 35.2578C84.5946 35.2578 84.7814 34.9385 84.7814 34.4281Z" fill="var(--fill-0, white)"/>
<path id="Vector_15" d="M88.2525 35.9776L87.3545 34.4872V35.9776H86.4611V32.8783H87.3545V34.3046L88.2203 32.8783H89.3099L88.2755 34.3776L89.3235 35.9776H88.2525Z" fill="var(--fill-0, white)"/>
<path id="Vector_16" d="M89.8955 32.8778H92.0331V33.5847H90.789V34.0815H91.9923V34.7698H90.789V35.2709H92.0331V35.9775H89.8955V32.8778ZM90.9031 31.9894H91.9422L91.2997 32.6909H90.5427L90.9031 31.9894Z" fill="var(--fill-0, white)"/>
</g>
<g id="Group_6">
<path id="Vector_17" d="M57.2977 40.3639V38.4078H58.1908V40.2816C58.1908 40.632 58.3823 40.7874 58.6328 40.7874C58.8837 40.7874 59.0749 40.632 59.0749 40.2816V38.4078H59.9686V40.3639C59.9686 41.2298 59.3623 41.5802 58.6328 41.5802C57.9037 41.5802 57.2977 41.2294 57.2977 40.3639Z" fill="var(--fill-0, white)"/>
</g>
<g id="Group_7">
<path id="Vector_18" d="M60.6729 39.958C60.6729 38.9694 61.4524 38.3673 62.368 38.3673C62.7331 38.3673 62.9604 38.4314 63.143 38.5134V39.2833C62.9697 39.197 62.7739 39.133 62.4912 39.133C62.0763 39.133 61.6482 39.3975 61.6482 39.958C61.6482 40.5185 62.1178 40.7648 62.441 40.7648C62.7646 40.7648 62.9701 40.6828 63.148 40.5876V41.3668C62.9611 41.4624 62.6512 41.558 62.2818 41.558C61.3701 41.5576 60.6729 40.947 60.6729 39.958ZM61.1786 37.5194H61.9539L62.2628 37.8566H62.2814L62.5917 37.5194H63.3663L62.7417 38.2213H61.8029L61.1786 37.5194Z" fill="var(--fill-0, white)"/>
</g>
<g id="Group_8">
<path id="Vector_19" d="M63.821 38.4083H65.9586V39.1152H64.7144V39.612H65.9175V40.3003H64.7144V40.8018H65.9586V41.508H63.821V38.4083Z" fill="var(--fill-0, white)"/>
<path id="Vector_20" d="M66.7726 38.4083H67.8715L68.8014 40.2592H68.8146V38.4083H69.7084V41.5076H68.6188L67.6796 39.6485H67.6664V41.5076H66.7726V38.4083Z" fill="var(--fill-0, white)"/>
<path id="Vector_21" d="M70.9504 37.5194H71.9899L71.347 38.2213H70.5903L70.9504 37.5194ZM70.6175 38.4081H71.5113V41.5075H70.6175V38.4081Z" fill="var(--fill-0, white)"/>
<path id="Vector_22" d="M73.8841 39.1331H73.1092V38.4083H75.5478V39.1331H74.7771V41.5076H73.8841V39.1331Z" fill="var(--fill-0, white)"/>
<path id="Vector_23" d="M76.125 38.4083H78.263V39.1152H77.0188V39.612H78.2214V40.3003H77.0188V40.8018H78.263V41.508H76.125V38.4083Z" fill="var(--fill-0, white)"/>
<path id="Vector_24" d="M78.8947 39.9581C78.8947 38.9694 79.6739 38.3674 80.5898 38.3674C80.9546 38.3674 81.1822 38.4315 81.3644 38.5134V39.2833C81.1915 39.1971 80.9957 39.133 80.713 39.133C80.2985 39.133 79.8704 39.3975 79.8704 39.9581C79.8704 40.5186 80.3393 40.7648 80.6632 40.7648C80.9868 40.7648 81.1919 40.6829 81.3694 40.5877V41.3669C81.1829 41.4624 80.873 41.558 80.5036 41.558C79.5915 41.5577 78.8947 40.947 78.8947 39.9581Z" fill="var(--fill-0, white)"/>
<path id="Vector_25" d="M82.9312 38.4083V39.5938H83.8475V38.4083H84.7409V41.5076H83.8475V40.2953H82.9312V41.5076H82.0381V38.4083H82.9312Z" fill="var(--fill-0, white)"/>
<path id="Vector_26" d="M85.65 38.4083H86.7485L87.6787 40.2592H87.692V38.4083H88.5857V41.5076H87.4962L86.557 39.6485H86.5437V41.5076H85.65V38.4083Z" fill="var(--fill-0, white)"/>
<path id="Vector_27" d="M89.4953 38.4083H90.3883V41.5076H89.4953V38.4083Z" fill="var(--fill-0, white)"/>
<path id="Vector_28" d="M91.1163 39.9581C91.1163 38.9694 91.8959 38.3674 92.8115 38.3674C93.1766 38.3674 93.4042 38.4315 93.5864 38.5134V39.2833C93.4135 39.1971 93.2178 39.133 92.935 39.133C92.5201 39.133 92.092 39.3975 92.092 39.9581C92.092 40.5186 92.5617 40.7648 92.8849 40.7648C93.2084 40.7648 93.4139 40.6829 93.5918 40.5877V41.3669C93.4049 41.4624 93.095 41.558 92.7256 41.558C91.8143 41.5577 91.1163 40.947 91.1163 39.9581Z" fill="var(--fill-0, white)"/>
<path id="Vector_29" d="M96.0512 41.5076L95.1535 40.0179V41.5076H94.2598V38.4083H95.1535V39.8354L96.0194 38.4083H97.1086L96.0741 39.908L97.1222 41.5076H96.0512Z" fill="var(--fill-0, white)"/>
<path id="Vector_30" d="M97.6946 38.4081H99.8325V39.1151H98.588V39.6119H99.791V40.3002H98.588V40.8017H99.8325V41.5079H97.6946V38.4081ZM98.7018 37.5194H99.7412L99.0984 38.2213H98.3417L98.7018 37.5194Z" fill="var(--fill-0, white)"/>
</g>
<g id="Group_9">
<path id="Vector_31" d="M56.9786 43.9387H57.9815L58.5105 46.2588H58.5288L59.0578 43.9387H60.06L59.1305 47.0384H57.9088L56.9786 43.9387Z" fill="var(--fill-0, white)"/>
</g>
<g id="Group_10">
<path id="Vector_32" d="M61.771 43.9387H63.1204C63.8445 43.9387 64.2959 44.4359 64.2959 45.0054C64.2959 45.5748 63.8445 46.0355 63.1204 46.0355H62.6648V47.0384H61.7714V43.9387H61.771ZM63.0152 45.3701C63.2113 45.3701 63.3892 45.2108 63.3892 44.9875C63.3892 44.7688 63.2113 44.6045 63.0152 44.6045H62.6648V45.3704L63.0152 45.3701Z" fill="var(--fill-0, white)"/>
<path id="Vector_33" d="M64.9505 43.9385H66.3729C67.0974 43.9385 67.5398 44.4035 67.5398 44.9597C67.5398 45.4888 67.1521 45.7211 66.8787 45.8442L66.874 45.8624C66.9148 45.8896 66.9875 45.9809 67.0469 46.0815L67.6171 47.0386H66.6099L66.0715 45.9491H65.8439V47.0386H64.9505V43.9385ZM66.204 45.3699C66.4456 45.3699 66.587 45.1784 66.587 44.9826C66.587 44.7861 66.4452 44.5996 66.204 44.5996H65.8439V45.3699H66.204Z" fill="var(--fill-0, white)"/>
<path id="Vector_34" d="M69.8714 46.3954H68.8824L68.7135 47.0383H67.7975L68.7224 43.9385H70.0303L70.9602 47.0383H70.0439L69.8714 46.3954ZM69.7028 45.7622L69.3971 44.6179H69.3563L69.0507 45.7622H69.7028Z" fill="var(--fill-0, white)"/>
<path id="Vector_35" d="M71.2054 46.3542L72.4997 44.6634H71.2326V43.9385H73.6161V44.5903L72.2989 46.3127H73.639V47.0379H71.2051L71.2054 46.3542Z" fill="var(--fill-0, white)"/>
<path id="Vector_36" d="M74.3166 43.9385H76.4541V44.6455H75.2096V45.1423H76.413V45.8306H75.2096V46.332H76.4541V47.0386H74.3166V43.9385Z" fill="var(--fill-0, white)"/>
</g>
</g>
</svg>
